<?xml version="1.0" standalone="no"?>
<!DOCTYPE svg PUBLIC "-//W3C//DTD SVG 20010904//EN"
 "http://www.w3.org/TR/2001/REC-SVG-20010904/DTD/svg10.dtd">
<svg version="1.0" xmlns="http://www.w3.org/2000/svg"
 width="330.000000pt" height="330.000000pt" viewBox="0 0 330.000000 330.000000"
 preserveAspectRatio="xMidYMid meet">

<g transform="translate(0.000000,330.000000) scale(0.100000,-0.100000)"
fill="#000000" stroke="none">
<path d="M10 1650 l0 -1640 1640 0 1640 0 0 1640 0 1640 -1640 0 -1640 0 0
-1640z m1825 920 c175 -54 335 -192 407 -350 59 -131 74 -291 40 -426 -34
-134 -75 -208 -172 -304 -93 -94 -160 -134 -280 -171 -106 -33 -275 -33 -375
-2 -201 63 -365 227 -430 429 -39 118 -42 270 -7 380 44 144 132 267 248 350
69 49 178 99 247 114 70 15 243 4 322 -20z m578 -1628 c15 -13 17 -34 17 -159
0 -89 -4 -143 -10 -143 -5 0 -10 7 -10 15 0 13 -6 11 -29 -6 -22 -16 -36 -19
-60 -14 -39 8 -51 30 -51 94 0 67 22 91 85 91 l45 0 0 44 c0 43 -18 76 -41 76
-25 0 -49 -23 -49 -45 0 -19 -5 -25 -21 -25 -18 0 -20 4 -14 33 10 42 21 55
53 59 37 5 64 -2 85 -20z m-1713 -24 c49 -184 45 -181 80 -45 21 78 25 87 47
87 l23 0 0 -160 c0 -136 -2 -160 -15 -160 -13 0 -15 21 -16 128 l-1 127 -27
-100 c-32 -116 -53 -134 -71 -63 -6 24 -20 70 -30 103 l-18 60 -1 -127 c-1
-107 -3 -128 -16 -128 -13 0 -15 24 -15 160 l0 160 25 0 c20 0 26 -7 35 -42z
m280 -118 c0 -136 -2 -160 -15 -160 -13 0 -15 24 -15 160 0 136 2 160 15 160
13 0 15 -24 15 -160z m130 15 l0 -145 45 0 c33 0 45 -4 45 -15 0 -12 -13 -15
-60 -15 l-60 0 0 160 c0 136 2 160 15 160 13 0 15 -23 15 -145z m182 78 l3
-68 43 68 c23 37 49 67 57 67 22 0 19 -7 -26 -76 l-40 -62 46 -91 c39 -78 43
-91 27 -91 -13 0 -29 21 -52 70 -19 39 -37 70 -41 70 -12 0 -19 -30 -19 -86 0
-41 -4 -54 -15 -54 -13 0 -15 24 -15 160 0 133 2 160 15 160 11 0 15 -16 17
-67z m208 -33 l5 -95 40 0 40 0 5 95 c4 80 8 95 23 98 15 3 17 -6 17 -88 0
-83 -2 -93 -25 -115 -13 -14 -29 -25 -35 -25 -5 0 -10 -20 -10 -45 0 -33 -4
-45 -15 -45 -11 0 -15 12 -15 45 0 25 -5 45 -10 45 -6 0 -22 11 -35 25 -23 22
-25 32 -25 115 0 82 2 91 18 88 14 -3 18 -18 22 -98z m475 -30 c10 -72 19
-129 21 -127 2 2 13 50 24 108 12 57 23 114 26 127 2 13 12 22 23 22 15 0 21
-19 41 -130 13 -71 25 -128 27 -126 2 2 11 48 19 102 20 142 24 154 41 154 12
0 14 -8 10 -32 -2 -18 -13 -91 -23 -161 -18 -127 -19 -128 -44 -125 -23 3 -26
9 -46 116 -11 62 -23 114 -26 117 -2 2 -15 -49 -27 -115 -22 -112 -25 -120
-46 -120 -27 0 -27 -1 -50 170 -9 63 -18 123 -21 133 -4 12 0 17 14 17 17 0
21 -15 37 -130z m575 30 l5 -95 40 0 40 0 5 95 c4 80 8 95 23 98 15 3 17 -6
17 -88 0 -83 -2 -93 -25 -115 -13 -14 -29 -25 -35 -25 -5 0 -10 -20 -10 -45 0
-33 -4 -45 -15 -45 -11 0 -15 12 -15 45 0 25 -5 45 -10 45 -6 0 -22 11 -35 25
-23 22 -25 32 -25 115 0 82 2 91 18 88 14 -3 18 -18 22 -98z m-700 -55 c0 -12
-14 -15 -70 -15 -56 0 -70 3 -70 15 0 12 14 15 70 15 56 0 70 -3 70 -15z"/>
<path d="M2312 778 c-15 -15 -16 -72 -2 -99 14 -25 41 -24 68 1 16 15 22 32
22 65 l0 45 -38 0 c-21 0 -43 -5 -50 -12z"/>
</g>
</svg>
