<svg width="758" height="758" xmlns="http://www.w3.org/2000/svg" xmlns:xlink="http://www.w3.org/1999/xlink" overflow="hidden"><defs><clipPath id="clip0"><rect x="-1" y="-1" width="758" height="758"></rect></clipPath></defs><g clip-path="url(#clip0)" transform="translate(1 1)"><path d="M338.456 561.06C428.936 622.094 570.747 643.317 703 570.487 621.542 708.385 457.522 784.118 293.136 746.303 89.838 699.515-37.0594 496.687 9.69184 293.271 54.8902 96.652 245.833-28.5297 442.139 5.59553 442.139 5.59553 519.138 18.9944 558.767 87.1661 573.646 111.709 585.529 140.262 593.274 172.483L593.437 173.235C602.697 216.314 602.898 262.088 592.37 307.85 576.148 378.543 536.277 444.687 484.404 480.151L484.085 480.443C502.076 461.789 515.357 438.184 521.613 411.076 539.898 331.615 490.311 252.383 410.89 234.128 331.463 215.855 252.274 265.47 234.022 344.896 228.739 367.924 228.06 390.757 232.392 412.154 232.392 412.154 246.306 501.838 338.456 561.06L338.456 561.06Z" fill="#0079C1" fill-rule="evenodd"></path><path d="M306 507.269C339.975 526.223 380.801 534.795 380.801 534.795 473.495 556.119 566.509 532.891 637.084 479.958L637.563 479.558C669.032 457.311 696.923 428.84 719.202 394.607 733.517 372.699 744.745 349.639 752.978 326 763.404 420.249 743.506 473.549 743.506 473.549 717.417 504.582 690.114 523.536 690.114 523.536 619.861 575.472 528.992 595.916 437.137 574.751 437.137 574.751 357.681 558.088 306 507.269L306 507.269Z" fill="#00B1B0" fill-rule="evenodd"></path><path d="M399.159 524.119C543.993 535.749 679.91 430.78 713.549 298.581 713.549 298.581 723.693 256.888 724 226.038 724 226.038 693.86 147.043 611.899 81 643.673 143.482 654.537 217.077 637.55 290.751 611.899 402.4 528.753 485.986 426.596 517.467 417.956 520.127 408.385 522.497 399 523.948L399.159 524.119 399.159 524.119Z" fill="#00B1B0" fill-rule="evenodd"></path></g></svg>