<svg width="698" height="752" xmlns="http://www.w3.org/2000/svg" xmlns:xlink="http://www.w3.org/1999/xlink" overflow="hidden"><defs><clipPath id="clip0"><rect x="29" y="2" width="698" height="752"></rect></clipPath></defs><g clip-path="url(#clip0)" transform="translate(-29 -2)"><path d="M447.565 102.683C448.986 104.918 450.855 106.913 451.078 109.132 453.219 115.66 459.271 119.586 460.022 126.258 460.262 128.509 463.169 129.37 464.67 130.36 466.283 132.467 465.181 134.829 468.311 137.91 469.813 138.868 468.663 141.23 468.918 143.48 470.42 144.454 471.953 145.428 473.438 146.433 486.998 167.63 488.324 192.274 472.592 215.114 470.068 217.62 467.657 221.227 466.65 224.707 465.389 225.968 462.738 227.324 461.444 228.553 461.715 230.804 463.201 231.762 464.846 233.885 458.042 235.64 457.259 241.323 452.069 245.201 450.695 245.329 447.916 245.568 446.526 245.712 442.709 249.463 438.668 250.947 434.756 253.565 433.51 254.81 433.861 258.162 434.005 259.263 427.536 264.355 418.081 267.515 408.195 267.291 406.853 267.451 405.831 270.915 404.458 271.026 397.478 271.697 389.061 271.362 382.098 272 379.191 271.154 377.578 269.063 374.655 268.201 371.892 268.489 369.097 268.712 366.206 267.898 361.686 264.897 356 264.307 351.56 262.487 348.653 261.609 343.351 264.355 340.348 262.407 331.005 254.267 321.71 246.159 316.583 237.604 313.165 232.321 307.367 230.613 305.371 225.186 305.115 222.935 306.169 219.488 303.247 218.642 297.449 216.918 299.861 213.327 299.494 209.975 297.752 206.799 297.481 204.548 294.335 201.451 292.578 198.259 294.878 193.535 293.009 189.209 292.881 188.108 294.143 186.847 294.015 185.73 291.907 179.186 295.341 172.099 294.702 166.56 294.319 163.208 295.229 158.628 296.235 155.148 299.685 148.077 302.991 139.873 309.204 132.547 309.06 131.462 308.821 129.227 308.725 128.126 309.971 126.865 311.36 126.737 312.638 125.476 314.794 119.682 317.078 114.942 320.767 110.121 325.702 104.024 333.544 98.773 339.869 92.564 343.638 88.845 348.989 86.0997 352.503 80.1143 353.78 78.8692 358.204 80.7047 359.498 79.4757 363.283 75.7567 368.953 76.3474 372.866 73.7137 376.795 71.1121 376.013 76.7786 380.053 75.294 382.832 75.0225 384.094 73.8096 386.745 72.4209 390.786 70.9207 395.322 73.8575 399.634 74.5759 403.771 74.2085 408.083 74.9427 412.619 77.8638 418.64 81.7903 432.552 80.4815 434.788 88.1746 438.142 93.4578 444.179 97.3843 447.565 102.683Z" fill="#AE1932" fill-rule="evenodd"></path><path d="M691.554 234.74C689.327 234.892 687.028 236.915 685.843 239.162 684.246 242.159 685.459 246.908 689.61 246.685 690.568 246.924 693.441 243.928 694.83 241.984 696.059 240.262 695.484 236.803 693.713 235.274 693.03 234.847 692.296 234.69 691.554 234.74ZM701.955 194.596C699.9 194.913 697.422 197.351 695.437 197.61 697.224 204.703 694.287 209.644 692.116 215.892 690.759 217.821 689.786 223.192 692.899 222.777 697.831 223.877 703.067 219.191 703.243 212.513 703.434 207.03 705.988 203.046 704.999 197.244 704.268 194.978 703.188 194.405 701.955 194.596ZM620.54 37.2948C621.914 37.6512 623.773 40.1528 625.82 41.4438 629.939 46.7992 630.721 53.6687 637.027 58.4185 642.262 62.371 644.322 68.9856 648.44 74.3571L648.041 76.5245C640.794 82.7408 634.472 72.3963 632.509 66.3877 629.588 60.156 626.634 53.9235 621.287 49.3811 621.51 48.3293 621.702 47.2613 621.925 46.1615 619.339 43.3403 616.035 39.2919 619.339 37.7777 619.678 37.2955 620.082 37.176 620.54 37.2948ZM650.883 18.7155C654.028 18.4125 656.502 21.3134 659.2 23.1302 660.142 23.4015 661.387 22.6043 662.329 22.8437 664.995 24.6765 666.511 27.322 666.766 30.781 666.83 31.8807 665.09 33.7455 664.851 34.7977 661.419 31.6735 658.018 28.4861 655.049 23.2099 654.092 22.9073 652.144 22.4132 651.378 21.0741 650.42 20.8032 650.643 19.7671 650.883 18.7155ZM564.09 3C569.198 3 573.923 5.15133 576.877 11.3832 577.659 12.6587 580.596 13.3279 581.57 13.5512 584.156 16.3403 583.948 23.0025 586.71 24.74 590.238 27.7363 595.538 26.6365 596.927 30.3348 598.89 36.3271 603.424 39.5628 605.579 44.5198 605.371 45.6035 605.962 47.9787 606.744 49.2697 610.304 52.2659 610.703 55.6931 613.209 58.4982 619.116 65.3994 625.038 72.2849 622.26 81.7524 620.536 85.8489 625.82 84.7491 627.417 87.3309 631.344 93.7862 629.747 102.425 634.872 108.003 633.882 118.985 639.214 129.106 642.566 138.781 636.867 147.611 640.028 163.056 644.561 171.869 644.561 171.869 647.706 171.471 647.914 170.371 648.887 165.032 658.673 163.215 657.093 160.633 655.113 154.576 652.16 142.016 652.16 136.438 652.751 127.576 653.134 119.83 651.761 110.586 650.979 109.279 650.196 108.003 649.414 106.728 648.233 101.979 647.052 97.229 648.041 91.8736 647.451 89.4829 645.679 88.0323 645.088 85.6256 645.296 84.5419 645.679 82.3902 645.87 81.3063 648.041 80.6687 650.803 82.3741 652.751 82.8361 654.554 84.3186 652.942 87.3149 653.74 88.6219 656.885 93.7701 661.594 95.9381 662.584 101.756 662.392 102.791 662.009 104.959 661.834 106.059 662.616 112.944 666.719 118.332 667.724 124.149 668.123 127.576 665.202 132.501 666.559 136.199 671.061 145.029 671.252 155.118 670.518 165.032 669.72 169.319 675.195 172.762 673.647 175.759 672.098 178.787 674.062 179.233 672.465 182.245 672.274 183.314 670.119 183.935 669.943 185.051 672.865 191.299 668.427 200.734 667.437 206.122 667.245 207.189 670.789 208.353 671.508 204.384 671.954 202.026 676.041 202.041 678.164 201.388 680.511 199.603 682.267 195.506 682.075 191.012 681.932 187.537 682.075 185.433 680.687 181.751 680.303 178.293 683.049 174.452 681.852 169.702 681.07 168.427 679.298 166.913 679.521 165.829 681.852 158.529 682.059 151.867 681.469 143.913 680.878 141.522 680.096 140.263 679.298 138.924 679.473 137.857 679.904 135.721 680.287 133.569 680.463 126.891 678.308 121.95 676.344 115.909 675.754 113.582 673.982 112.052 673.599 108.625 672.817 107.318 671.045 105.788 671.22 104.72 672.992 95.0455 668.267 87.2834 666.878 78.0226 664.707 67.5192 654.714 60.8411 651.553 50.0823 651.713 48.9986 655.001 49.4448 655.991 49.668 663.845 56.9995 672.529 65.5906 674.668 76.1422 676.041 79.8081 675.451 83.0277 677.047 85.6256 683.704 93.7862 684.885 104.114 686.082 114.442 685.891 115.511 688.046 114.857 688.828 116.18 688.636 117.248 688.237 119.399 689.019 120.675 694.128 126.285 690.983 132.278 691.989 138.111 692.579 140.471 693.346 141.762 694.128 143.069 693.936 144.152 691.398 146.973 691.174 148.01 695.341 153.396 697.097 160.505 695.948 166.944 700.673 169.112 698.501 175.328 699.651 180.078 700.417 181.369 701.439 181.592 702.429 181.783 703.77 179.855 705.142 177.911 705.557 175.742 706.148 166.928 706.547 159.182 704.935 151.022 703.594 147.356 703.147 143.913 705.717 141.124 703.738 140.693 703.131 138.303 702.381 137.012 698.853 122.811 697.384 106.904 693.17 92.3834 693.17 92.3834 694.319 91.523 694.559 90.4708 693.042 77.7518 683.336 65.7821 678.755 52.9512 678.037 50.6563 674.301 47.931 672.545 45.4921 672.545 45.4921 672.689 44.4084 672.801 43.3086 677.781 43.9779 681.549 48.7914 684.167 52.4575 689.371 59.8207 695.325 67.9656 696.889 76.1422 699.635 83.4421 703.722 91.1561 705.35 98.2966 706.435 103.046 709.899 106.122 712.182 110.076 713.475 113.773 712.821 116.977 713.14 120.419 714.545 128.66 717.051 136.597 718.599 144.774 720.595 150.799 721.393 157.668 719.398 162.848 716.668 172.316 722.958 182.628 725.496 191.012 726.885 194.709 725.128 198.774 723.564 201.786 723.373 202.87 725.128 204.384 724.921 205.436 723.165 209.532 724.554 213.198 723.756 217.518 722.591 218.362 725.128 221.168 723.756 223.064 722.591 223.989 721.617 223.766 720.435 224.627 718.855 227.639 720.228 231.289 719.637 234.54 716.492 240.533 718.089 248.726 712.198 253.029 710.011 253.651 709.82 254.75 708.638 255.595 709.644 255.818 710.442 257.109 711.193 258.4 710.027 259.245 709.038 259.022 707.872 259.898 707.505 262.034 711.671 264.696 712.47 265.955 710.889 274.594 704.424 282.133 704.632 292.238 704.233 294.39 703.626 297.609 703.275 299.777 701.279 304.925 697.56 308.623 695.596 313.755 695.213 315.907 691.095 316.114 690.68 318.281 688.125 321.071 688.349 325.598 686.561 329.694 685.204 331.606 682.235 331.001 679.888 332.69 677.159 336.532 677.526 340.022 675.786 344.086 672.817 349.043 669.225 354.383 666.304 359.323 662.967 366.416 657.316 373.254 651.266 378.657 650.276 378.45 648.121 379.071 646.94 379.932 643.811 385.973 640.203 390.516 633.547 393.528 632.541 393.321 631.072 397.991 629.907 398.852 625.309 402.278 622.66 406.167 617.072 409.403 614.981 410.04 613.816 410.917 611.501 407.044 604.222 419.97 594.452 430.059 583.869 438.921 578.345 442.125 572.726 441.79 569.07 445.408 557.018 457.266 537.846 469.842 535.659 471.595 534.733 471.372 531.046 476.871 531.046 476.871 527.135 477.206 529.385 477.556 525.778 476.711 525.778 476.711 525.602 482.784 520.701 483.788 510.325 485.813 507.58 497.862 506.781 502.819 506.366 505.305 504.658 503.616 503.445 504.604 502.296 505.608 503.046 507.075 501.88 508.095 497.379 510.884 493.5 516.399 489.732 520.638 488.583 521.643 487.785 520.144 486.604 521.164 485.422 522.169 479.931 529.022 477.951 534.967 473.242 545.455 468.054 554.827 461.573 562.254 459.977 564.055 465.245 571.068 464.845 573.427 463.345 576.726 460.344 577.284 458.875 580.599 457.534 588.808 457.167 597.989 455.73 606.675 453.384 615.171 456.305 621.211 457.47 628.798 458.747 635.189 457.119 643.445 457.438 649.629 457.885 654.634 461.318 660.069 460.759 664.931 460.934 672.39 459.226 671.386 460.839 677.65 460.615 681.299 459.434 684.918 460.264 687.42 459.961 692.329 459.179 695.358 458.907 700.235 457.854 701.414 455.714 703.725 455.651 704.937 454.9 717.194 446.903 727.952 438.49 735.985 433.286 739.316 428.784 744.417 422.83 743.986 419.845 743.811 409.884 750.123 406.547 750.92 397.735 753.374 390.696 753.422 382.283 752.274 372.96 749.756 365.585 747.413 359.152 737.898 355.368 733.658 348.792 735.236 346.317 728.717 345.583 726.151 340.187 724.812 339.309 723.457 334.44 719.106 331.854 713.767 328.199 708.348 325.725 701.844 327.512 697.398 324.559 691.086 321.494 687.213 320.185 684.488 317.152 680.614 313.082 675.498 318.078 668.118 315.093 663.018 313.002 661.647 310.99 659.097 310.001 656.547 308.037 651.542 308.5 644.258 305.515 638.951 303.871 632.591 304.924 609.528 306.153 603.312 306.393 602.053 302.801 600.3 303.009 599.056 303.519 590.099 306.616 581.412 305.914 572.168 306.856 567.211 306.393 563.242 310.91 559.002 310.91 559.002 308.787 557.266 309.011 556.022 311.629 548.818 311.597 543.255 313.018 535.764 313.257 534.521 315.875 533.756 316.13 532.513 314.678 527.014 314.614 515.921 315.54 510.932 316.035 508.445 322.468 504.731 323.953 502.5 324.176 501.289 323.011 498.085 325.421 493.766 326.044 492.714 327.72 493.033 328.965 492.045 329.157 490.785 328.343 489.319 328.566 488.076 329.189 484.362 335.494 481.652 335.941 479.166 338.415 470.703 342.678 467.18 347.131 460.279 348.76 457.282 349.35 454.031 351.984 451.258 353.165 450.413 353.756 451.242 353.948 450.158 354.155 449.074 353.612 446.699 353.756 445.631 356.263 442.81 359.727 440.244 360.285 437.024 362.025 432.928 363.558 429.948 366.032 427.11 370.645 423.668 375.259 420.209 378.116 415.3 380.607 412.479 383.48 413.132 386.002 410.311 389.626 406.645 390.6 401.29 393.281 397.385 399.619 389.83 406.531 384.682 413.427 379.518 419.174 375.198 426.485 373.477 432.041 370.242 437.788 365.938 441.252 357.793 446.823 354.558 450.239 351.976 454.294 351.753 457.774 349.171 461.222 346.573 464.095 341.616 469.283 340.532 480.745 337.536 472.54 340.755 483.267 336.452 489.972 332.371 487.194 331.24 493.915 327.143 505.041 320.673 510.836 316.545 511.778 316.767 512.927 315.907 514.077 315.046 514.46 312.894 517.142 309.005 531.413 299.044 533.536 298.406 535.627 297.769 538.149 300.558 540.608 297.769 541.949 295.824 539.251 294.119 540.608 292.158 544.263 288.492 547.743 283.552 551.303 280.969 552.469 280.125 555.23 281.846 557.385 281.176 558.551 280.332 558.95 278.18 560.115 277.335 561.488 275.391 558.934 272.618 560.307 270.625 561.887 267.629 563.436 264.616 565.622 263.995 568.975 262.481 573.476 260.122 572.918 257.763 573.668 253.443 575.44 249.347 579.958 246.972 580.165 245.936 580.372 244.789 580.548 243.736 583.086 240.931 585.465 239.242 588.035 236.453 590.749 232.58 589.568 227.846 591.164 224.818 596.24 219.207 601.157 214.729 602.53 207.189 602.147 203.731 599.976 198.79 601.556 195.746 602.913 193.849 607.223 192.542 607.622 190.406 608.404 186.087 606.233 181.13 606.042 176.635 606.616 173.399 610.144 170.818 609.761 167.375 609.362 158.337 609.953 149.508 608.596 140.279 611.709 139.865 612.124 137.665 612.491 135.514 611.709 128.628 607.782 122.205 606.026 115.08 605.834 110.57 609.522 106.888 609.346 102.409 608.947 98.9504 605.642 94.8383 602.051 91.8575 598.73 87.7615 600.902 81.5291 599.72 76.8114 598.73 71.01 594.388 66.6586 593.606 59.8207 593.207 56.3624 589.089 56.5857 587.716 52.9035 586.534 48.186 585.353 43.4361 585.353 37.8413 584.762 35.4828 581.618 35.9129 579.846 34.4148 575.887 27.9596 577.292 14.8261 568.623 11.8298 569.406 7.51047 565.495 6.634 564.09 3Z" fill="#0079BC" fill-rule="evenodd"></path><path d="M223.677 228.569C224.617 229.351 226.002 230.581 226.751 231.54 228.343 232.594 229.967 232.706 231.671 231.955 233.295 232.083 234.744 236.3 236.4 236.412 238.756 237.529 240.221 241.73 242.53 243.743 244.106 244.75 245.762 246.251 247.323 247.321 249.552 250.196 251.001 253.008 253.31 255.02 254.823 256.953 257.322 256.266 258.978 256.378 262.179 257.56 263.453 262.192 265.73 265.083 266.558 265.163 267.975 268.006 267.943 268.917 269.487 269.923 271 271.856 273.388 272.942 274.105 273.932 274.009 275.737 274.726 276.68 280.633 286.231 288.404 292.285 293.403 302.636 293.403 302.636 294.056 304.505 294.009 305.415 300.123 311.341 302.798 319.727 308.052 326.483 309.485 329.295 310.823 333.943 312.145 337.648 313.657 339.597 315.234 340.635 316.715 342.584 318.928 346.37 321.046 351.082 321.523 355.634 321.396 357.407 320.217 362.742 317.113 359.787 313.307 355.858 313.689 350.491 309.82 347.44 309.884 346.545 308.833 344.181 308.052 343.255 306.492 341.386 303.69 341.498 303.037 338.75 303.244 336.051 300.219 333.831 298.674 331.962 294.773 326.372 289.12 324.295 284.455 318.64 283.611 318.625 282.783 318.577 281.923 319.423 281.063 321.18 278.516 323.784 280.84 326.595 284.041 328.56 285.538 332.25 289.582 334.246 291.954 336.147 292.575 341.594 294.009 346.194 295.569 348.047 297.145 349.916 299.566 350.986 301.938 352.887 300.999 355.762 303.26 358.669 303.196 359.579 302.304 360.378 302.241 361.272 303.705 364.147 307.002 363.461 309.278 366.368 311.014 364.706 313.434 366.032 314.867 368.652 312.208 371.16 312.877 373.013 311.874 375.68 309.103 379.961 315.361 384.066 319.294 386.206 321.762 386.398 321.412 390.902 323.752 392.899 325.201 395.742 329.262 396.078 331.459 399.879 332.16 401.748 330.456 402.515 329.5 404.224 329.293 406.939 332.51 408.089 334.07 409.128 335.631 410.166 336.331 412.066 337 413.904 334.484 414.606 329.644 411.252 327.192 411.013 325.663 410.326 322.701 406.779 319.565 406.093 318.482 405.837 317.718 408.441 316.555 408.201 315.074 407.914 313.482 407.626 311.858 407.306 310.122 406.987 305.967 402.403 304.183 402.131 302.129 401.78 299.629 405.55 297.639 405.198 290.251 403.952 289.964 403.441 287.655 402.483 284.901 401.365 282.305 400.087 279.869 398.697 278.277 397.835 278.723 395.71 277.226 394.752 275.729 393.761 272.529 393.777 271.016 392.851 265.109 389.209 259.536 381.015 254.488 378.38 251.16 376.67 248.358 374.93 244.68 373.188 242.849 372.054 241.575 369.514 239.314 368.764 232.371 366.432 226.798 362.023 218.9 359.771 203.917 355.506 191.466 364.132 179.285 370.441 178.648 370.441 177.374 370.313 176.689 370.776 173.887 373.172 170.575 374.45 167.788 376.319 164.014 379.338 158.76 380.12 154.588 382.581 153.251 383.379 153.107 385.807 151.818 386.59 149.827 387.74 146.292 387.995 144.334 389.193 142.582 390.359 142.344 392.452 140.624 393.745 137.137 396.573 133.713 398.873 128.984 401.109 126.277 402.499 103.826 406.333 100.1 406.396 94.3043 406.476 90.292 411.268 81.6617 411.252 68.5254 411.188 55.4049 410.917 44.4979 402.77 42.189 400.774 41.7591 395.311 40.2145 394.273 35.5015 391.19 35.9631 384.897 34.6257 380.248 33.0971 379.242 29.817 378.987 30.0079 376.255 31.8073 362.822 38.4312 350.65 46.5359 341.386 48.4308 337.904 52.6503 336.451 52.9847 331.946 52.9847 331.946 60.2772 321.659 64.688 317.523 65.6593 315.798 64.2103 312.938 65.1497 311.213 71.8531 298.179 84.0023 289.218 93.9222 277.334 96.5655 274.859 98.4603 271.361 102.6 270.801 104.272 270.929 105.88 271.073 106.82 269.332 108.778 264.987 112.265 262.543 114.861 260.946 124.351 254.477 132.328 244.67 143.156 242.865 144.843 242.114 145.799 240.389 147.471 239.59 149.27 237.929 152.407 239.974 154.095 239.223 162.152 235.581 169.508 227.77 177.788 226.636 179.476 225.886 180.447 224.128 181.243 224.208 188.599 224.831 197.261 218.282 204.172 225.198 210.445 223.921 219.744 225.214 223.677 228.569ZM279.965 307.603C279.98 306.693 280.028 305.814 280.044 304.904 276.844 302.939 275.427 297.444 271.35 296.342 270.554 296.311 268.866 297.141 268.834 298.02 268.627 303.45 270.936 307.156 273.213 311.772 274.169 308.21 276.605 308.338 278.165 311.102 279.009 310.271 279.901 308.498 279.965 307.603Z" fill="#2E853C" fill-rule="evenodd"></path></g></svg>