<svg width="746" height="580" xmlns="http://www.w3.org/2000/svg" xmlns:xlink="http://www.w3.org/1999/xlink" overflow="hidden"><defs><clipPath id="clip0"><rect x="5" y="82" width="746" height="580"></rect></clipPath></defs><g clip-path="url(#clip0)" transform="translate(-5 -82)"><path d="M6 534 243.608 160 277 217.422 86.7556 514.6C86.7619 514.594 18.4263 527.782 6 534Z" fill="#008837" fill-rule="evenodd"></path><path d="M367.657 112 114 510C114 510 157.565 506.109 165.354 506.895L391 156.308 367.657 112Z" fill="#008837" fill-rule="evenodd"></path><path d="M463.734 82 197 506.14C197 506.14 407.749 496.801 515.834 515.479 515.834 515.479 735.915 546.604 677.596 614.312 677.596 614.312 652.713 641.548 565.606 661 565.606 661 724.256 653.222 746.806 577.749 746.806 577.749 756.132 554.401 742.913 534.163L463.734 82Z" fill="#008837" fill-rule="evenodd"></path><path d="M76.5528 575.438 95.7001 575.438C104.21 575.438 117.649 577.839 117.649 607.657 117.649 624.255 112.196 641.556 95.9621 641.556L76.5528 641.556 76.5528 575.438ZM57 659 98.3704 659C129.89 659 138 627.772 138 606.109 138 586.972 131.356 558 99.1627 558L57 558 57 659Z" fill="#008837" fill-rule="evenodd"></path><path d="M184.873 580.78 185.133 580.78 196.876 620.724 172.734 620.724 184.873 580.78ZM167.454 638.176 202.429 638.176 208.489 659 230 659 196.61 558 173.78 558 140 659 160.855 659 167.454 638.176Z" fill="#008837" fill-rule="evenodd"></path><path d="M313.719 575.853 262.692 575.853 262.692 597.091 309.572 597.091 309.572 614.969 262.692 614.969 262.692 641.128 316 641.128 316 659 243 659 243 558 313.719 558 313.719 575.853Z" fill="#008837" fill-rule="evenodd"></path><path d="M377.09 604.617 417 604.617 417 658.37 403.701 658.37 401.716 645.861C396.643 651.976 389.335 661 371.904 661 348.888 661 328 643.776 328 608.776 328 581.55 342.504 555.858 374.694 556.001 403.969 556.001 415.54 575.856 416.607 589.614L396.649 589.614C396.649 585.721 389.871 573.225 375.767 573.225 361.532 573.225 348.358 583.499 348.358 609.06 348.358 636.281 362.593 643.367 376.154 643.367 380.554 643.367 395.182 641.56 399.314 621.427L377.09 621.427 377.09 604.617Z" fill="#008837" fill-rule="evenodd"></path><path d="M511.994 623.27C511.994 649.677 496.83 661 472.77 661 463.987 661 450.95 658.764 442.448 648.843 437.264 642.69 435.262 634.587 435 624.522L435 558 455.342 558 455.342 623.121C455.342 637.097 463.058 643.25 472.371 643.25 486.063 643.25 491.658 636.256 491.658 624.099L491.658 558 512 558 512 623.27Z" fill="#008837" fill-rule="evenodd"></path></g></svg>