<?xml version="1.0" standalone="no"?>
<!DOCTYPE svg PUBLIC "-//W3C//DTD SVG 20010904//EN"
 "http://www.w3.org/TR/2001/REC-SVG-20010904/DTD/svg10.dtd">
<svg version="1.0" xmlns="http://www.w3.org/2000/svg"
 width="1200.000000pt" height="800.000000pt" viewBox="0 0 1200.000000 800.000000"
 preserveAspectRatio="xMidYMid meet">

<g transform="translate(0.000000,800.000000) scale(0.100000,-0.100000)"
fill="#000000" stroke="none">
<path d="M7038 6893 c-24 -32 -46 -60 -49 -63 -3 -3 -52 -73 -108 -157 -56
-84 -106 -155 -111 -158 -6 -3 -10 -13 -10 -21 0 -8 -17 -41 -37 -72 -21 -31
-43 -75 -49 -97 -30 -99 -64 -187 -83 -214 -12 -16 -21 -32 -21 -36 0 -5 -18
-36 -40 -71 -22 -35 -45 -84 -52 -108 -11 -40 -10 -47 7 -66 23 -25 39 -26 25
-1 -5 11 -10 29 -10 41 0 23 54 135 93 192 31 45 67 124 67 148 0 9 3 20 6 23
8 8 53 115 59 138 2 8 22 42 44 74 23 32 41 62 41 67 0 5 17 32 39 61 21 29
46 66 55 82 9 17 37 57 62 90 24 33 60 83 78 111 19 29 39 55 45 59 53 32 98
-94 111 -315 4 -80 11 -156 15 -170 20 -79 21 -402 0 -659 -11 -140 -43 -166
-230 -186 -65 -8 -77 -17 -69 -52 4 -13 1 -36 -4 -53 -11 -30 -11 -30 27 -30
21 0 74 -5 119 -11 45 -6 87 -9 94 -6 23 8 -44 29 -129 40 -77 9 -96 18 -74
31 5 3 50 6 100 7 63 1 89 5 82 12 -6 6 -49 10 -96 10 -74 0 -86 2 -83 16 3
12 20 17 79 22 146 12 181 37 204 145 21 95 32 546 16 640 -7 38 -18 146 -26
239 -16 205 -37 301 -71 333 -42 37 -68 29 -116 -35z"/>
<path d="M6093 6778 c-52 -56 -154 -190 -164 -216 -5 -14 -25 -50 -44 -81 -18
-31 -41 -81 -51 -111 -9 -30 -20 -64 -24 -75 -4 -11 -15 -47 -25 -80 -9 -33
-21 -69 -25 -80 -34 -84 -52 -154 -47 -177 4 -14 25 -45 47 -68 22 -23 40 -46
40 -52 0 -14 -60 1 -93 24 -34 25 -51 14 -18 -11 l24 -18 -24 -8 c-20 -6 -16
-9 26 -15 28 -4 60 -10 72 -14 16 -5 25 -2 33 13 13 26 -6 67 -44 95 -42 30
-50 74 -25 132 24 55 33 84 55 164 36 132 100 280 172 391 25 39 76 103 85
107 4 2 7 9 7 16 0 12 60 76 72 76 13 0 30 -63 33 -122 2 -35 8 -146 15 -248
30 -491 29 -451 8 -494 -24 -49 -49 -69 -113 -91 -60 -22 -66 -30 -59 -71 4
-21 -1 -48 -14 -78 l-21 -45 -90 2 c-82 2 -91 4 -91 21 0 10 -8 25 -17 32 -17
13 -17 13 0 14 13 0 17 9 17 36 0 29 -3 35 -16 30 -9 -3 -27 -6 -40 -6 -13 0
-24 -4 -24 -10 0 -5 10 -10 23 -10 13 0 27 -3 30 -7 9 -9 -49 -43 -73 -43 -11
0 -20 -4 -20 -10 0 -5 23 -10 50 -10 87 0 49 -44 -46 -53 -33 -4 -68 -9 -77
-13 -13 -5 -17 0 -17 20 0 22 -5 27 -40 32 -28 5 -41 12 -46 28 -11 35 -75
128 -112 160 -19 16 -38 39 -43 50 -5 12 -13 28 -19 36 -5 8 -18 35 -29 60
-20 47 -24 51 -107 114 l-51 38 -7 74 c-3 41 -12 85 -21 97 -13 20 -56 129
-72 180 -7 22 -15 21 -34 -6 -21 -29 -32 -71 -34 -134 -4 -77 -13 -82 -46 -27
-16 27 -29 56 -29 65 0 8 -7 24 -15 35 -22 29 -30 8 -44 -110 -10 -77 -10
-131 -1 -224 10 -115 10 -123 -9 -149 -24 -34 -40 -123 -40 -220 1 -40 -2 -77
-5 -82 -4 -6 -7 -50 -7 -98 -1 -65 5 -104 20 -151 12 -35 19 -67 16 -72 -3 -5
-18 -15 -34 -23 -27 -13 -27 -13 -23 10 2 13 -1 23 -7 23 -6 0 -11 -4 -11 -9
0 -5 -25 -39 -55 -76 -66 -80 -132 -180 -180 -273 -19 -37 -46 -85 -59 -108
-23 -40 -56 -160 -56 -207 0 -34 -60 -78 -123 -89 -27 -5 -84 -26 -125 -46
-61 -30 -78 -43 -89 -71 -8 -19 -13 -50 -10 -67 4 -21 -3 -53 -18 -91 l-24
-58 -52 0 c-29 0 -54 -5 -56 -10 -2 -6 19 -20 45 -31 47 -20 68 -49 53 -71 -3
-6 -40 -20 -81 -32 -87 -26 -160 -59 -160 -72 0 -14 68 -11 98 5 15 7 48 17
75 20 45 7 47 6 47 -18 0 -42 -17 -73 -44 -80 -35 -9 -33 -26 2 -26 26 0 30
-5 47 -62 11 -35 21 -68 23 -74 1 -6 -17 -16 -42 -23 -84 -21 -100 -29 -85
-47 11 -13 8 -19 -16 -38 -15 -12 -25 -28 -21 -34 9 -15 -39 -84 -70 -100 -16
-8 -23 -19 -20 -28 3 -8 2 -14 -3 -14 -20 0 -93 -60 -136 -112 -25 -31 -70
-73 -100 -93 -46 -32 -76 -65 -59 -65 16 0 93 60 150 115 36 36 69 63 74 60 5
-3 20 1 32 9 13 7 34 17 48 21 14 4 36 16 49 26 13 11 34 19 47 19 13 0 24 3
24 8 0 13 78 32 158 39 71 6 76 5 63 -11 -18 -22 -8 -31 18 -16 14 7 27 7 39
1 9 -5 46 -17 82 -26 36 -10 73 -26 83 -37 10 -10 27 -18 37 -18 39 0 150 -53
196 -93 40 -35 44 -42 28 -48 -17 -6 -15 -9 13 -25 18 -11 33 -26 33 -35 0 -9
20 -22 51 -33 32 -12 46 -22 39 -26 -19 -12 -4 -27 33 -34 18 -3 39 -16 47
-28 8 -11 27 -36 43 -53 15 -18 27 -38 27 -43 0 -6 25 -39 55 -73 54 -60 135
-204 135 -239 0 -9 30 -79 66 -154 l66 -137 -8 -179 c-6 -172 -6 -179 15 -208
11 -17 21 -35 21 -42 0 -6 5 -8 10 -5 6 3 10 21 9 38 0 18 -3 26 -6 18 -3 -8
-11 1 -19 24 -9 28 -11 79 -7 198 5 135 4 164 -10 191 -45 88 -107 226 -107
238 0 29 -69 188 -81 188 -4 0 -10 8 -14 18 -3 9 -28 41 -55 71 -28 29 -50 58
-50 63 0 15 -94 126 -112 133 -10 3 -18 13 -18 21 0 9 -21 24 -49 36 -31 12
-55 30 -63 47 -32 64 -66 101 -118 129 -64 35 -135 62 -167 62 -13 0 -28 9
-35 20 -7 11 -20 20 -28 20 -8 0 -42 9 -74 20 -33 11 -71 20 -85 21 -23 0 -24
1 -6 9 41 16 -37 24 -135 13 -80 -9 -110 -18 -185 -54 -50 -24 -93 -45 -97
-47 -5 -2 -8 0 -8 5 0 5 21 20 47 33 37 18 43 25 29 30 -14 5 -8 12 33 37 34
22 49 37 45 47 -3 9 6 23 24 36 17 13 28 28 26 35 -3 7 9 18 25 25 38 16 40
30 4 31 -23 1 -19 4 20 17 40 13 52 14 69 3 32 -20 34 -4 6 52 -44 88 -51 123
-38 202 6 39 15 104 18 145 8 84 54 198 81 200 9 0 42 1 74 2 31 1 57 5 57 9
0 4 -16 17 -36 29 l-35 22 -29 -27 c-31 -30 -32 -30 -44 47 -6 31 -3 39 20 57
32 25 50 27 58 6 3 -8 14 -15 24 -15 27 0 61 -41 77 -91 10 -33 15 -40 20 -27
10 24 -38 102 -75 125 -17 9 -30 20 -30 23 0 7 36 29 68 41 l27 9 -23 -18
c-29 -23 -18 -35 17 -18 36 18 84 29 77 17 -4 -5 -20 -12 -36 -16 -36 -8 -41
-29 -5 -23 14 3 25 2 25 -1 0 -3 24 -6 54 -7 30 0 52 4 50 8 -3 4 -14 8 -24 8
-13 0 -17 5 -14 15 4 10 0 15 -15 15 -12 0 -21 5 -21 10 0 6 -8 10 -17 11 -16
0 -16 1 1 12 56 36 76 59 76 92 0 43 45 198 59 203 6 2 11 10 11 18 0 8 18 46
40 85 22 39 40 73 40 75 0 7 120 173 130 179 6 3 10 1 10 -4 0 -6 -4 -11 -9
-11 -5 0 -11 -9 -14 -20 -7 -28 8 -25 32 8 61 79 71 87 71 55 1 -13 13 -4 40
27 38 43 40 44 46 23 3 -13 12 -23 20 -23 23 0 62 18 81 38 10 10 30 27 46 37
24 15 27 16 21 1 -3 -9 -3 -16 0 -16 11 0 49 24 75 47 17 15 29 19 36 13 8 -7
20 -3 36 11 13 12 38 32 54 45 18 14 24 24 15 24 -8 0 -26 -9 -40 -20 -14 -11
-33 -20 -43 -20 -10 0 -37 -9 -59 -20 -23 -11 -47 -20 -53 -20 -11 0 -94 -59
-123 -87 -7 -7 -17 -13 -21 -13 -17 0 -81 78 -81 99 0 12 -7 29 -15 37 -10 11
-15 39 -16 92 -1 42 0 82 1 87 1 6 5 30 7 55 3 25 14 54 24 65 26 29 35 97 15
118 -24 24 -19 61 15 113 19 27 28 49 22 53 -28 18 -40 283 -16 349 8 21 13
16 47 -51 36 -70 39 -79 32 -134 -4 -32 -9 -85 -11 -118 l-5 -60 15 60 c8 33
19 94 25 135 32 236 49 305 65 254 4 -10 11 -28 17 -38 28 -52 56 -148 63
-212 6 -63 10 -74 35 -93 16 -11 35 -21 43 -21 28 0 83 -68 106 -129 15 -41
37 -77 71 -111 55 -56 105 -125 120 -164 6 -16 20 -28 37 -32 58 -12 58 -13
22 -50 -39 -41 -85 -68 -104 -60 -13 5 -63 -8 -97 -25 -14 -7 -18 -5 -18 8 -1
12 -6 8 -17 -12 -8 -16 -22 -38 -31 -48 -23 -26 -5 -34 21 -9 13 12 30 22 38
22 8 0 34 14 57 31 24 18 40 24 36 16 -4 -12 0 -14 15 -10 12 3 24 9 27 14 3
5 24 9 47 9 51 0 87 9 87 21 0 5 -15 9 -32 10 -32 0 -33 0 -8 11 70 29 154 39
335 42 165 2 204 0 301 -20 66 -14 131 -34 159 -50 27 -14 78 -37 114 -49 36
-13 62 -24 56 -25 -5 -1 -40 -2 -77 -3 -39 -2 -73 -8 -80 -16 -11 -10 -4 -12
37 -11 85 3 110 1 99 -9 -5 -5 -22 -12 -39 -14 -16 -3 -3 -4 29 -3 l60 1 13
70 c9 47 10 79 4 97 -6 17 -6 30 0 33 15 10 10 44 -14 83 -12 20 -29 49 -36
65 -13 25 -31 37 -31 19 0 -4 11 -28 25 -54 22 -42 25 -78 6 -78 -4 0 -14 11
-21 25 -16 29 -110 92 -109 72 0 -6 22 -28 48 -49 27 -20 59 -51 71 -70 l24
-33 -25 23 c-14 12 -30 22 -35 22 -5 0 -26 11 -46 25 -41 28 -99 36 -79 11 7
-8 26 -18 42 -21 16 -4 31 -11 35 -16 3 -5 20 -15 37 -23 18 -7 41 -23 51 -35
l19 -21 -43 15 c-23 8 -54 15 -69 15 -19 -1 -8 -9 45 -34 39 -18 74 -38 78
-44 9 -14 -62 -4 -89 13 -11 6 -33 15 -50 19 -16 4 -37 13 -45 20 -17 14 -120
42 -192 51 -26 3 -50 11 -54 16 -3 6 -18 7 -33 4 -19 -4 -32 -1 -41 10 -11 13
-7 15 36 15 27 0 56 5 64 11 11 8 6 9 -23 5 -38 -5 -103 14 -90 27 3 4 29 7
57 8 41 0 46 2 28 9 -12 5 -30 6 -39 3 -11 -4 -14 -3 -9 5 4 7 25 12 47 12 22
0 39 5 39 11 0 7 -19 10 -54 7 -30 -2 -53 -1 -50 4 3 4 22 8 42 8 64 0 75 20
12 21 -35 1 -48 4 -35 8 131 46 158 91 151 251 -6 143 -40 609 -50 683 -4 30
-32 67 -51 67 -6 0 -25 -15 -42 -32z m-1251 -950 c-16 -16 -15 -45 1 -51 9 -3
9 -7 0 -17 -13 -14 -33 -5 -33 15 0 25 19 65 32 65 9 0 9 -3 0 -12z m1193
-168 c-3 -5 -10 -10 -16 -10 -5 0 -9 5 -9 10 0 6 7 10 16 10 8 0 12 -4 9 -10z
m-2045 -1570 c0 -5 -9 -10 -21 -10 -11 0 -17 5 -14 10 3 6 13 10 21 10 8 0 14
-4 14 -10z m-67 -17 c-7 -2 -19 -2 -25 0 -7 3 -2 5 12 5 14 0 19 -2 13 -5z"/>
<path d="M4946 5879 c-20 -16 -26 -29 -26 -60 0 -75 78 -109 113 -50 24 42 21
68 -12 102 -35 35 -40 35 -75 8z m74 -30 c16 -29 12 -54 -14 -78 -20 -19 -28
-21 -45 -12 -56 30 -22 133 37 113 7 -2 17 -13 22 -23z"/>
<path d="M4953 5834 c-8 -21 13 -42 28 -27 13 13 5 43 -11 43 -6 0 -13 -7 -17
-16z"/>
<path d="M6900 5425 c-6 -7 -12 -23 -13 -34 -1 -12 -4 -21 -8 -21 -4 0 -9 -11
-11 -25 -3 -14 -1 -25 6 -25 6 0 22 -3 36 -7 l25 -6 -24 27 c-14 14 -20 26
-14 26 5 0 18 -9 28 -20 14 -16 147 -86 210 -111 57 -23 215 -136 163 -116
-33 12 -18 -8 63 -83 55 -51 75 -76 66 -80 -11 -4 3 -25 49 -75 38 -41 62 -76
59 -84 -3 -8 5 -26 19 -40 24 -26 46 -60 87 -136 12 -22 35 -60 52 -84 25 -36
27 -43 11 -37 -10 5 -28 10 -39 13 -18 4 -19 3 -3 -10 37 -30 223 -451 259
-587 24 -86 38 -247 22 -237 -6 4 -14 19 -17 34 -16 67 -46 111 -46 67 0 -32
54 -171 96 -248 24 -43 44 -81 44 -84 0 -2 18 -41 40 -86 23 -44 32 -70 21
-56 -11 14 -27 34 -35 45 -15 20 -15 20 -16 0 0 -11 16 -44 35 -72 39 -58 41
-65 20 -57 -23 9 -18 -4 18 -49 19 -23 37 -50 40 -59 4 -10 12 -18 20 -18 23
0 9 79 -21 113 -9 10 -15 31 -14 47 1 17 -14 64 -38 114 -22 46 -40 87 -40 91
0 3 -11 21 -24 38 -30 41 -37 69 -46 202 -11 146 -25 226 -54 294 -28 68 -75
185 -90 226 -6 17 -18 42 -27 56 -9 14 -24 45 -32 70 -9 24 -25 64 -37 88 -20
40 -20 45 -6 53 14 8 10 18 -27 73 -82 125 -99 156 -94 175 3 13 -7 32 -29 55
-19 20 -46 57 -61 83 -42 72 -69 111 -103 145 -16 17 -30 38 -30 47 0 37 -125
130 -256 190 -132 61 -176 84 -165 88 6 2 26 -1 43 -7 38 -13 76 -15 63 -2 -6
5 -40 19 -77 31 -98 33 -119 64 -28 41 65 -17 112 -23 106 -13 -3 5 -16 12
-28 15 -13 3 -49 12 -80 20 -47 12 -59 13 -68 2z"/>
<path d="M4486 4740 c-26 -65 -31 -116 -12 -123 17 -7 28 11 42 68 10 39 -5
29 -22 -15 -9 -23 -18 -39 -21 -37 -2 2 2 17 8 33 23 59 37 114 29 114 -4 0
-15 -18 -24 -40z"/>
<path d="M5031 4759 c-46 -14 -95 -55 -121 -102 -26 -45 -43 -162 -34 -229 5
-42 12 -53 55 -89 48 -40 53 -42 122 -44 122 -3 226 33 250 87 6 16 18 28 25
28 8 0 10 5 6 12 -4 6 -6 33 -5 59 2 53 -29 157 -61 202 -46 64 -157 100 -237
76z m154 -35 c78 -41 102 -85 115 -213 8 -76 7 -88 -10 -117 -27 -42 -103 -74
-194 -81 -67 -4 -74 -3 -126 29 -34 21 -57 42 -61 58 -17 61 -26 110 -20 110
4 0 8 14 9 30 4 50 33 113 71 153 59 62 137 73 216 31z"/>
<path d="M4961 4597 c-49 -59 -3 -205 48 -152 15 17 15 17 -1 12 -10 -4 -18
-2 -18 3 0 5 10 10 23 12 18 2 23 10 25 44 4 57 -12 94 -42 94 -13 0 -29 -6
-35 -13z m59 -72 c0 -8 -4 -15 -10 -15 -5 0 -10 7 -10 15 0 8 5 15 10 15 6 0
10 -7 10 -15z"/>
<path d="M4443 4724 c-7 -23 -13 -54 -12 -70 1 -23 4 -19 15 21 18 63 14 108
-3 49z"/>
<path d="M4540 4672 c0 -6 -6 -17 -14 -24 -19 -19 -32 -63 -16 -53 15 9 43 75
36 83 -3 3 -6 0 -6 -6z"/>
<path d="M4540 4619 c-18 -33 -6 -42 13 -9 10 16 14 30 8 30 -6 0 -15 -9 -21
-21z"/>
<path d="M4572 4598 c-6 -6 -12 -19 -12 -27 0 -13 2 -13 16 1 9 9 15 21 13 27
-3 9 -8 8 -17 -1z"/>
<path d="M4590 4570 c0 -5 4 -10 9 -10 6 0 13 5 16 10 3 6 -1 10 -9 10 -9 0
-16 -4 -16 -10z"/>
<path d="M4370 4471 c0 -4 12 -6 27 -3 21 4 25 2 20 -12 -5 -11 -1 -16 13 -16
13 0 18 6 17 20 -1 16 -8 20 -39 20 -21 0 -38 -4 -38 -9z"/>
<path d="M5008 4035 c-4 -16 2 -30 16 -43 18 -15 33 -17 106 -12 91 5 243 -3
325 -19 102 -20 267 -46 355 -56 14 -2 59 -10 100 -19 41 -9 76 -16 77 -16 1
0 7 9 13 20 9 17 7 22 -15 30 -106 40 -526 103 -845 126 -30 2 -71 6 -91 9
-33 4 -37 2 -41 -20z m227 -16 c165 -14 407 -46 480 -64 l60 -15 -60 5 c-33 2
-89 9 -125 15 -191 31 -382 48 -543 50 -16 0 -26 4 -22 10 8 13 59 12 210 -1z
m578 -86 c-7 -2 -19 -2 -25 0 -7 3 -2 5 12 5 14 0 19 -2 13 -5z m82 -13 l30
-8 -30 0 c-16 0 -39 3 -50 8 l-20 9 20 -1 c11 0 34 -4 50 -8z"/>
<path d="M4750 3990 c0 -5 5 -10 11 -10 6 0 3 -7 -5 -16 -9 -8 -16 -19 -16
-23 0 -15 46 -46 63 -43 32 6 219 -29 367 -70 202 -56 249 -68 300 -78 42 -8
103 -26 294 -87 44 -14 89 -26 100 -28 12 -1 38 -10 60 -19 21 -9 47 -16 58
-16 31 0 17 33 -22 52 -45 22 -333 118 -355 118 -9 0 -58 13 -108 29 -144 45
-197 59 -264 71 -34 6 -83 17 -110 25 -26 7 -109 26 -183 40 -95 19 -140 33
-152 46 -18 20 -38 25 -38 9z m115 -55 c170 -37 160 -35 350 -80 214 -51 373
-95 545 -151 139 -46 134 -44 128 -50 -3 -2 -41 7 -84 20 -88 28 -332 97 -409
116 -27 7 -104 27 -170 45 -153 42 -241 62 -335 75 -108 16 -120 19 -120 30 0
13 13 13 95 -5z m1100 -305 c13 -6 15 -9 5 -9 -8 0 -22 4 -30 9 -18 12 -2 12
25 0z"/>
<path d="M4085 3814 c9 -9 18 -14 21 -11 9 9 -6 27 -22 27 -13 0 -13 -2 1 -16z"/>
<path d="M4960 3672 c0 -25 6 -30 53 -47 82 -29 352 -150 469 -210 59 -30 115
-55 123 -55 30 0 12 44 -27 65 -20 11 -69 38 -110 61 -76 43 -203 102 -273
127 -22 8 -80 31 -128 51 -48 20 -92 36 -98 36 -5 0 -9 -13 -9 -28z m204 -68
c38 -19 76 -34 84 -34 24 0 352 -169 352 -182 0 -3 -46 17 -102 46 -57 28
-128 62 -158 76 -30 13 -92 41 -138 62 -46 21 -86 38 -90 38 -22 0 -142 55
-142 66 0 14 80 -15 194 -72z"/>
<path d="M3418 3213 c-16 -2 -28 -8 -28 -12 0 -5 -17 -27 -37 -49 -53 -55
-128 -145 -128 -151 0 -3 -4 -12 -9 -20 -7 -11 -4 -13 13 -8 19 5 21 3 9 -11
-7 -9 -34 -39 -60 -66 -27 -26 -45 -52 -42 -58 3 -5 -2 -18 -12 -29 -9 -10
-15 -21 -12 -24 7 -8 38 5 38 16 0 5 4 9 10 9 5 0 -7 -23 -27 -52 -60 -84
-173 -301 -173 -334 0 -9 -20 -47 -45 -84 -28 -42 -43 -74 -39 -84 3 -9 0 -26
-8 -39 -17 -26 -58 -140 -58 -162 0 -8 -18 -50 -40 -94 -42 -84 -52 -124 -25
-101 21 17 19 8 -7 -36 -12 -20 -23 -57 -24 -83 -2 -25 -12 -93 -23 -151 -16
-80 -21 -151 -23 -300 -1 -107 0 -211 4 -230 3 -19 6 -43 7 -52 1 -10 6 -18
12 -18 8 0 9 20 5 68 -9 86 -10 130 -4 167 3 17 2 35 -2 40 -4 6 1 51 11 100
21 105 22 118 9 110 -16 -10 -12 38 9 104 10 34 17 69 14 79 -2 10 9 52 26 94
16 42 29 84 28 95 0 10 16 47 38 81 21 34 35 65 32 68 -3 3 -22 -13 -43 -35
-20 -23 -39 -39 -43 -36 -3 3 -1 9 5 13 15 11 97 195 96 216 -1 11 17 53 38
94 22 42 40 83 40 92 0 17 52 97 74 113 7 5 2 7 -11 4 -13 -3 -23 -3 -23 -1 0
11 51 104 84 153 20 29 36 57 36 62 0 5 15 15 33 24 43 20 98 52 111 65 5 5
18 10 28 10 18 0 91 -67 117 -107 18 -26 46 -16 55 20 6 27 -35 294 -49 317
-12 19 -77 1 -120 -33 l-39 -32 28 38 c29 37 28 41 -9 38 -18 -1 -18 0 5 19
65 55 116 107 113 116 -2 6 15 20 37 33 21 12 42 26 45 31 6 10 2 10 -47 3z
m-13 -270 c4 -27 11 -64 16 -83 15 -59 23 -200 11 -200 -12 0 -48 43 -57 68
-3 9 -24 30 -47 46 -46 32 -48 31 -147 -30 l-45 -27 22 30 c12 17 22 35 22 40
0 4 12 26 27 48 l27 40 -27 -18 c-14 -9 -29 -17 -32 -17 -12 0 30 49 43 50 6
0 12 5 12 10 0 6 5 10 12 10 7 0 23 11 37 24 31 30 80 56 103 56 12 0 18 -12
23 -47z"/>
<path d="M8235 2873 c4 -21 10 -42 15 -48 13 -18 21 -65 10 -65 -13 0 -13 -37
0 -45 6 -3 10 -26 10 -50 0 -60 46 -205 66 -205 14 0 13 24 -6 76 -5 11 -4 40
0 65 7 35 4 61 -17 129 -14 47 -28 97 -30 113 -3 15 -9 27 -13 27 -5 0 -12 9
-15 20 -12 36 -28 22 -20 -17z"/>
<path d="M3900 2673 c-37 -7 -153 -99 -194 -155 -57 -76 -53 -80 62 -72 l98 7
35 -31 c19 -16 57 -69 84 -116 42 -72 54 -85 75 -84 14 0 18 2 9 5 -9 2 -22
16 -30 31 -32 64 -124 195 -146 209 -18 12 -39 14 -86 10 -34 -3 -72 -9 -84
-13 -41 -12 -26 18 39 78 35 32 66 58 71 58 4 0 25 12 47 26 57 38 101 39 134
5 21 -22 27 -41 36 -116 5 -50 10 -125 10 -167 0 -42 5 -80 10 -83 14 -8 13
135 -1 250 -11 91 -34 147 -65 159 -17 7 -65 6 -104 -1z"/>
<path d="M8336 2318 c4 -57 13 -119 20 -138 14 -39 16 -30 15 60 -2 111 -13
180 -27 180 -12 0 -13 -19 -8 -102z"/>
<path d="M4609 2131 c-67 -21 -131 -70 -189 -146 l-43 -56 24 -17 c28 -20 24
-19 121 -21 l76 -1 31 -42 c38 -51 77 -78 115 -78 l29 0 -6 80 c-7 92 -39 205
-71 252 -23 35 -44 42 -87 29z m64 -39 c22 -24 56 -123 67 -192 4 -30 11 -67
15 -82 6 -25 4 -28 -16 -28 -30 0 -61 25 -84 67 -25 42 -55 54 -157 62 -48 3
-89 9 -92 12 -6 6 87 101 136 138 54 43 105 52 131 23z"/>
<path d="M5254 1945 c-6 -32 -1 -55 10 -44 11 11 17 79 8 79 -6 0 -14 -16 -18
-35z"/>
<path d="M8394 1965 c3 -11 12 -92 21 -180 9 -88 19 -173 21 -190 5 -32 18
-339 19 -443 0 -34 3 -62 8 -62 9 0 8 -11 11 220 2 107 0 200 -5 205 -4 6 -10
53 -13 105 -3 52 -9 138 -14 190 -6 52 -11 102 -11 110 -1 8 -11 26 -22 40
-17 21 -19 22 -15 5z"/>
<path d="M5266 1874 c-10 -26 -7 -82 5 -90 6 -4 8 -20 5 -38 -7 -39 3 -98 15
-90 13 8 11 124 -2 124 -11 0 -10 17 7 83 5 20 3 27 -9 27 -8 0 -18 -7 -21
-16z"/>
<path d="M5286 1623 c-10 -39 -17 -223 -8 -223 5 0 12 28 15 63 3 34 9 88 13
120 5 38 3 57 -4 57 -6 0 -13 -8 -16 -17z"/>
<path d="M5290 1379 c0 -6 -11 -24 -25 -41 -26 -31 -33 -82 -13 -94 7 -5 9 0
6 14 -4 14 4 38 23 67 31 48 35 65 19 65 -5 0 -10 -5 -10 -11z"/>
<path d="M5271 1248 c-38 -40 -51 -76 -44 -124 3 -24 9 -44 13 -44 13 0 29 69
17 73 -13 4 7 61 31 90 23 26 7 32 -17 5z"/>
<path d="M5262 1078 c-14 -14 -16 -78 -3 -78 7 0 24 81 17 87 -1 2 -8 -3 -14
-9z"/>
<path d="M5252 945 c-14 -31 -15 -45 -4 -45 9 0 32 44 32 60 0 19 -17 10 -28
-15z"/>
</g>
</svg>
